<svg width="565" height="550" viewBox="0 0 565 550" fill="none" xmlns="http://www.w3.org/2000/svg">
<path d="M0 50C0 22.3857 22.3858 0 50 0L514.501 0C542.115 0 564.501 22.3858 564.501 50V500C564.501 527.614 542.115 550 514.501 550H50.0001C22.3858 550 0 527.614 0 500L0 50Z" fill="#5C755A" fill-opacity="0.560784"/>
<path d="M150.994 110.54C146.899 113.514 140.854 116.391 133.931 118.693C115.699 124.735 98.0513 139.793 91.2263 155.139C88.0088 162.14 83.9137 177.677 83.2312 185.35C82.0612 198.106 85.4737 222.084 90.2513 234.744C91.1288 236.95 92.6888 241.17 93.8588 244.047C94.9313 246.924 96.7838 250.569 97.9538 252.199C99.1238 253.734 101.074 256.995 102.244 259.393C103.414 261.79 105.656 265.435 107.216 267.545C108.776 269.655 112.969 275.697 116.576 280.972C120.281 286.248 124.961 292.482 127.204 294.784C131.299 299.195 145.729 310.225 147.387 310.225C147.972 310.225 149.629 311.088 151.189 312.239C154.504 314.541 158.014 315.596 166.107 316.939C174.297 318.186 184.437 322.693 183.657 324.612C181.707 329.023 181.219 334.874 182.487 338.423C184.242 343.794 187.752 345.52 199.452 346.767C204.717 347.342 210.664 348.014 212.517 348.301C214.369 348.589 218.172 348.973 220.804 349.26C223.534 349.548 226.069 350.124 226.557 350.507C227.044 350.987 228.604 351.083 230.067 350.795C231.529 350.507 232.992 350.699 233.382 351.275C234.162 352.521 231.529 360.77 228.019 368.346C224.217 376.403 222.949 384.651 223.437 397.407C223.924 409.204 226.264 415.822 231.627 420.522C234.454 422.919 235.527 423.303 239.037 422.919C241.767 422.632 243.717 421.768 244.984 420.33C246.739 418.124 246.837 418.124 246.154 423.399C245.374 430.208 242.547 438.457 237.867 447.376C235.819 451.309 232.992 458.214 231.432 462.722C229.969 467.23 226.849 474.327 224.509 478.547C222.267 482.767 220.317 486.795 220.317 487.563C220.317 488.33 218.952 491.974 217.294 495.715C204.132 525.255 197.014 543.862 196.917 548.753C196.917 549.712 224.314 550 330.59 550C457.438 550 464.165 549.904 463.678 548.274C463.385 547.41 461.825 539.929 460.168 531.777C458.608 523.625 455.683 510.006 453.83 501.565C451.978 493.125 449.833 482.671 449.053 478.451C448.273 474.135 446.713 467.613 445.64 464.065C444.568 460.42 442.228 452.076 440.57 445.458C438.913 438.936 436.573 431.072 435.208 428.003C433.94 425.029 432.868 421.577 432.868 420.522C432.868 419.371 431.6 415.438 429.943 411.698C428.383 408.053 427.018 404.217 427.018 403.354C427.018 400.956 430.528 398.174 437.06 395.105C442.325 392.708 442.813 392.132 446.323 385.227C448.37 381.198 451.783 374.868 453.733 371.32C457.633 364.414 460.07 356.358 460.168 350.22C460.168 347.822 461.825 343.122 464.945 336.792C471.868 322.789 483.116 316.939 481.911 280.972C481.326 263.517 469.528 249.61 469.04 247.596C468.553 245.486 466.31 241.841 464.165 239.443C462.02 236.95 456.17 229.277 451.295 222.467C439.693 206.355 433.94 200.024 425.555 193.982C417.463 188.132 406.64 182.665 403.13 182.665C401.765 182.665 397.67 181.706 394.16 180.651C388.993 178.924 386.36 178.637 380.315 179.116C372.223 179.787 362.862 182.377 357.695 185.446C355.842 186.597 354.185 187.46 353.892 187.46C353.6 187.46 351.455 185.734 349.017 183.528C343.752 178.828 341.802 177.773 330.2 173.649C325.227 171.827 318.207 169.237 314.405 167.895C304.362 164.154 288.762 161.469 275.112 161.085C262.73 160.797 258.83 161.469 246.642 165.881C234.162 170.388 221.292 181.993 214.857 194.27C213.687 196.764 210.274 201.943 207.447 205.779C204.619 209.711 200.817 216.137 198.964 220.07C187.264 245.678 185.802 248.075 179.367 251.24C176.734 252.583 173.809 253.638 172.834 253.638C169.032 253.638 153.139 249.418 148.654 247.212C142.706 244.239 125.351 227.838 122.621 222.467C121.549 220.357 120.086 217.96 119.404 217.192C116.186 213.548 114.041 203.957 114.041 193.215C114.041 180.842 115.894 173.17 121.159 163.003C125.351 155.043 126.424 153.796 133.736 147.945C140.074 142.862 150.507 139.026 155.577 139.985C158.404 140.464 158.697 140.273 159.282 137.491C159.574 135.861 159.867 132.6 159.867 130.202C159.867 127.9 160.354 124.064 160.939 121.762C163.279 112.555 157.332 105.841 150.994 110.54Z" fill="black" fill-opacity="0.8"/>
</svg>
